<svg xmlns="http://www.w3.org/2000/svg" enable-background="new 0 0 24 24" viewBox="0 0 24 24" id="quora" fill="white"><path d="m18.404 23.996c-2.337 0-3.41-1.216-4.179-2.498-.733.149-1.48.225-2.226.225-6.065 0-11-4.873-11-10.862s4.936-10.861 11.001-10.861 11 4.872 11 10.86c0 3.633-1.791 6.956-4.815 8.983.636.909 1.817 1.264 1.831 1.268.213.062.359.258.359.48v1.758c0 .241-.172.448-.409.492-.576.106-1.095.155-1.562.155zm-3.929-3.564c.178 0 .346.095.436.254.819 1.453 1.731 2.625 4.465 2.238v-.984c-.599-.246-1.779-.865-2.314-2.059-.104-.23-.02-.5.195-.631 2.97-1.812 4.743-4.948 4.743-8.39 0-5.437-4.486-9.86-10-9.86s-10 4.424-10 9.862 4.486 9.862 10 9.862c.791 0 1.585-.094 2.358-.278.039-.01.079-.014.117-.014z"></path><path d="m11.998 19c-3.42 0-5.998-3.776-5.998-8.783 0-4.384 2.354-7.217 5.998-7.217 3.647 0 6.002 2.833 6.002 7.217 0 3.55-.537 5.688-1.689 6.728-.196.175-.495.171-.684-.013-.614-.598-2.244-1.926-4.627-1.975v1.037c.635.19 1.831.71 2.695 2.067.085.134.102.301.044.45s-.183.26-.336.302c-.461.124-.934.187-1.405.187zm0-15c-3.083 0-4.998 2.382-4.998 6.217 0 4.437 2.148 7.783 4.998 7.783.125 0 .251-.005.376-.017-.882-.934-1.893-1.092-1.943-1.099-.246-.035-.431-.246-.431-.495v-1.924c0-.266.209-.486.475-.5 2.625-.136 4.514 1.095 5.467 1.902.711-.963 1.058-2.821 1.058-5.65 0-3.835-1.917-6.217-5.002-6.217z"></path></svg>