<svg xmlns="http://www.w3.org/2000/svg"
 width="467" height="198" viewBox="0 0 1280.000000 720.000000"
 preserveAspectRatio="xMidYMid meet">

<g transform="translate(0.000000,720.000000) scale(0.100000,-0.100000)"
fill="#000000" stroke="none">
<path d="M120 3600 l0 -3260 6275 0 6275 0 0 3260 0 3260 -6275 0 -6275 0 0
-3260z m6238 1266 c36 -19 106 -93 126 -133 25 -49 20 -102 -13 -154 -45 -70
-122 -129 -169 -129 -36 0 -95 35 -135 79 -90 99 -90 173 0 275 64 71 131 93
191 62z m2062 -416 l0 -160 146 0 146 0 -6 -37 c-4 -21 -15 -49 -25 -63 -17
-24 -23 -25 -140 -28 l-121 -3 0 -403 c0 -415 3 -456 40 -476 46 -25 116 -7
188 47 34 26 52 23 52 -7 0 -26 -93 -105 -168 -142 -113 -56 -285 -48 -354 17
-70 65 -78 123 -78 593 l0 372 -85 0 -85 0 0 33 c0 45 8 53 75 78 124 46 195
114 245 237 18 42 34 79 36 81 6 6 69 19 102 20 l32 1 0 -160z m-3938 -132
c52 -15 133 -89 148 -133 30 -90 2 -207 -59 -252 -56 -42 -151 -52 -227 -23
l-23 9 25 45 c51 90 27 207 -43 214 -95 10 -171 -170 -194 -458 -17 -217 0
-356 58 -463 48 -88 52 -87 -251 -87 -141 0 -256 3 -256 8 0 4 -3 17 -6 29 -5
19 0 23 36 33 23 6 53 22 66 35 l24 24 0 414 c0 308 -3 416 -12 425 -7 7 -39
12 -75 12 -97 0 -98 32 -3 92 111 71 307 102 364 57 26 -20 26 -21 26 -165 0
-140 10 -177 25 -97 10 53 59 157 97 205 60 76 176 107 280 76z m932 -8 c97
-25 173 -67 225 -126 72 -83 74 -93 80 -510 5 -305 9 -374 21 -389 20 -24 106
-17 148 14 l31 22 12 -23 c11 -20 8 -25 -27 -55 -21 -18 -68 -48 -102 -65 -52
-26 -79 -32 -147 -36 -72 -4 -90 -1 -130 18 -55 26 -94 81 -102 140 -7 47 -21
61 -36 34 -27 -49 -115 -127 -174 -155 -164 -78 -366 -31 -433 101 -26 52 -43
159 -31 209 39 173 229 270 529 271 l124 0 -4 173 c-3 160 -5 176 -28 222 -36
72 -79 98 -153 93 -46 -4 -63 -10 -87 -33 -56 -54 -62 -146 -14 -233 l23 -43
-37 -16 c-20 -8 -62 -18 -93 -20 -106 -10 -170 31 -189 120 -27 134 76 254
253 292 96 21 250 19 341 -5z m1020 -5 l27 -25 -3 -642 -3 -643 -27 -77 c-77
-229 -246 -343 -482 -325 -193 14 -315 108 -315 242 -1 91 53 168 135 195 40
13 121 9 168 -9 27 -11 28 -12 11 -31 -66 -73 -56 -268 16 -305 74 -39 147 6
168 103 7 36 11 255 11 697 0 572 -2 645 -16 659 -11 11 -35 16 -80 16 -57 0
-64 2 -64 19 0 55 227 149 361 150 57 1 70 -2 93 -24z m934 10 c135 -32 233
-100 279 -193 l28 -57 5 -376 c5 -353 6 -378 24 -398 25 -28 84 -28 137 0 32
16 43 18 55 8 13 -10 10 -17 -18 -46 -68 -71 -169 -113 -276 -113 -124 0 -195
57 -216 173 -4 21 -11 37 -15 35 -5 -2 -27 -26 -50 -55 -101 -128 -268 -182
-422 -137 -40 12 -67 29 -105 68 -62 61 -79 108 -79 216 0 64 4 82 27 121 77
130 216 188 476 196 l152 5 0 126 c0 210 -28 305 -100 343 -42 23 -111 24
-151 3 -76 -39 -90 -201 -24 -274 16 -18 15 -20 -21 -35 -22 -9 -70 -19 -109
-22 -89 -6 -130 14 -162 77 -73 142 50 305 256 340 79 13 242 11 309 -5z
m1680 -789 c15 -8 51 -39 79 -69 76 -80 82 -134 23 -215 -44 -61 -105 -102
-151 -102 -68 0 -172 102 -185 181 -8 45 14 94 63 144 70 72 117 89 171 61z"/>
<path d="M5265 3673 c-135 -28 -205 -99 -205 -208 0 -97 48 -150 135 -149 125
2 190 94 202 282 l6 92 -34 -1 c-19 0 -65 -7 -104 -16z"/>
<path d="M7232 3675 c-122 -27 -194 -91 -207 -185 -8 -58 16 -122 58 -152 40
-29 121 -29 169 -1 66 38 117 169 118 301 l0 52 -37 -1 c-21 0 -67 -7 -101
-14z"/>
</g>
</svg>
