<svg width="34.934" height="27.721" viewBox="0 0 80 95" fill="none" xmlns="http://www.w3.org/2000/svg">
<path d="M2.77 45V6.5H8.93V13.85H10.4L8.37 18.4C8.37 14.2467 9.25667 11.12 11.03 9.02C12.85 6.87333 15.5333 5.8 19.08 5.8C23.14 5.8 26.36 7.08333 28.74 9.65C31.1667 12.17 32.38 15.6 32.38 19.94V22.25H26.08V20.5C26.08 17.4667 25.3333 15.1567 23.84 13.57C22.3933 11.9367 20.3167 11.12 17.61 11.12C14.95 11.12 12.85 11.9367 11.31 13.57C9.81667 15.2033 9.07 17.5133 9.07 20.5V45H2.77Z" fill="white"/>
<path d="M54.64 40.7C50.58 40.7 47.3833 39.6733 45.05 37.62C42.7167 35.52 41.55 32.6967 41.55 29.15C41.55 25.5567 42.7167 22.7333 45.05 20.68C47.3833 18.6267 50.5333 17.6 54.5 17.6H66.4V13.75C66.4 11.37 65.6767 9.55 64.23 8.29C62.83 6.98333 60.8233 6.33 58.21 6.33C55.9233 6.33 54.01 6.82 52.47 7.8C50.93 8.73333 50.0433 10.0167 49.81 11.65H43.51C43.93 8.33667 45.4933 5.7 48.2 3.74C50.9067 1.78 54.29 0.8 58.35 0.8C62.7833 0.8 66.2833 1.94333 68.85 4.23C71.4167 6.51667 72.7 9.62 72.7 13.54V40H66.54V32.65H65.49L66.54 31.6C66.54 34.4 65.4433 36.6167 63.25 38.25C61.1033 39.8833 58.2333 40.7 54.64 40.7ZM56.18 35.73C59.1667 35.73 61.6167 34.9833 63.53 33.49C65.4433 31.9967 66.4 30.0833 66.4 27.75V22.29H54.64C52.54 22.29 50.8833 22.8733 49.67 24.04C48.4567 25.2067 47.85 26.7933 47.85 28.8C47.85 30.9467 48.5733 32.65 50.02 33.91C51.5133 35.1233 53.5667 35.73 56.18 35.73Z" fill="white"/>
<path d="M0.95 94.6V88.79H9.98C12.8733 88.79 15.1133 87.9967 16.7 86.41C18.3333 84.87 19.15 82.6767 19.15 79.83V49.24H3.05V43.5H25.45V79.83C25.45 84.3567 24.05 87.95 21.25 90.61C18.45 93.27 14.6933 94.6 9.98 94.6H0.95ZM21.95 36.57C20.41 36.57 19.1967 36.1733 18.31 35.38C17.4233 34.5867 16.98 33.5133 16.98 32.16C16.98 30.76 17.4233 29.6633 18.31 28.87C19.1967 28.03 20.41 27.61 21.95 27.61C23.49 27.61 24.7033 28.03 25.59 28.87C26.4767 29.6633 26.92 30.76 26.92 32.16C26.92 33.5133 26.4767 34.5867 25.59 35.38C24.7033 36.1733 23.49 36.57 21.95 36.57Z" fill="white"/>
<path d="M61.64 90.7C57.58 90.7 54.3833 89.6733 52.05 87.62C49.7167 85.52 48.55 82.6967 48.55 79.15C48.55 75.5567 49.7167 72.7333 52.05 70.68C54.3833 68.6267 57.5333 67.6 61.5 67.6H73.4V63.75C73.4 61.37 72.6767 59.55 71.23 58.29C69.83 56.9833 67.8233 56.33 65.21 56.33C62.9233 56.33 61.01 56.82 59.47 57.8C57.93 58.7333 57.0433 60.0167 56.81 61.65H50.51C50.93 58.3367 52.4933 55.7 55.2 53.74C57.9067 51.78 61.29 50.8 65.35 50.8C69.7833 50.8 73.2833 51.9433 75.85 54.23C78.4167 56.5167 79.7 59.62 79.7 63.54V90H73.54V82.65H72.49L73.54 81.6C73.54 84.4 72.4433 86.6167 70.25 88.25C68.1033 89.8833 65.2333 90.7 61.64 90.7ZM63.18 85.73C66.1667 85.73 68.6167 84.9833 70.53 83.49C72.4433 81.9967 73.4 80.0833 73.4 77.75V72.29H61.64C59.54 72.29 57.8833 72.8733 56.67 74.04C55.4567 75.2067 54.85 76.7933 54.85 78.8C54.85 80.9467 55.5733 82.65 57.02 83.91C58.5133 85.1233 60.5667 85.73 63.18 85.73Z" fill="white"/>
<path d="M43.2 82C39.8867 82 37.2967 81.1133 35.43 79.34C33.61 77.5667 32.7 75.07 32.7 71.85V49.24H21.85V43.5H32.7V32.65H39V43.5H54.4V49.24H39V71.85C39 74.79 40.4 76.26 43.2 76.26H53.7V82H43.2Z" fill="white"/>
</svg>
