<svg width="115" height="69" viewBox="0 0 115 69" fill="none" xmlns="http://www.w3.org/2000/svg">
<path d="M0 42V0.699998H2.1V42H0ZM6.3 42V0.699998H8.4V42H6.3ZM12.6 42V0.699998H21V42H12.6ZM13.79 52.15C15.05 52.15 16.1 52.5933 16.94 53.48L16.1 54.88L16.03 55.16L15.82 55.02C15.7733 54.8333 15.7267 54.6933 15.68 54.6C15.5867 54.46 15.4233 54.32 15.19 54.18C14.77 53.9 14.2567 53.76 13.65 53.76C13.0433 53.76 12.46 53.9233 11.9 54.25C11.34 54.53 10.8967 54.9967 10.57 55.65C10.1967 56.3033 10.01 57.0967 10.01 58.03V64.33H8.12V52.43H10.08L10.01 54.6C10.3367 53.8533 10.85 53.2467 11.55 52.78C12.25 52.36 12.9967 52.15 13.79 52.15Z" fill="#09F755"/>
<path d="M25 42V0.699998H27.1V42H25ZM31.3 42V0.699998H33.4V42H31.3ZM35.5 42V0.699998H39.7V42H35.5ZM36.41 52.15C38.09 52.15 39.3733 52.5933 40.26 53.48C41.1467 54.3667 41.59 55.8833 41.59 58.03V64.33H39.56V62.51C38.86 63.91 37.5067 64.61 35.5 64.61C34.1933 64.61 33.1667 64.3067 32.42 63.7C31.6733 63.0933 31.3 62.3 31.3 61.32C31.3 60.48 31.58 59.7567 32.14 59.15C32.6533 58.5433 33.3767 58.0533 34.31 57.68C35.1967 57.3533 36.2 57.19 37.32 57.19C38.3 57.19 39.1867 57.2367 39.98 57.33C39.8867 56.0233 39.5367 55.09 38.93 54.53C38.3233 53.97 37.4367 53.69 36.27 53.69C35.6633 53.69 35.1033 53.8067 34.59 54.04C34.03 54.2733 33.5167 54.6 33.05 55.02L32.14 53.83C33.26 52.71 34.6833 52.15 36.41 52.15ZM35.71 63.21C37.0167 63.21 38.0433 62.8133 38.79 62.02C39.5367 61.2733 39.9333 60.2 39.98 58.8C39.1867 58.66 38.3467 58.59 37.46 58.59C36.1533 58.59 35.1033 58.8233 34.31 59.29C33.5633 59.71 33.19 60.3633 33.19 61.25C33.19 62.5567 34.03 63.21 35.71 63.21Z" fill="#09F755"/>
<path d="M48 42V0.699998H50.1V42H48ZM58.5 42V0.699998H62.7V42H58.5ZM66.9 42V0.699998H69V42H66.9ZM58.08 68.88C57.3333 68.88 56.6333 68.74 55.98 68.46C55.3267 68.18 54.7667 67.76 54.3 67.2L55.35 65.8L55.49 65.59L55.63 65.66C55.63 65.7067 55.6533 65.7767 55.7 65.87C55.7 66.01 55.7467 66.15 55.84 66.29C55.8867 66.3833 55.98 66.4767 56.12 66.57C56.68 67.0367 57.3333 67.27 58.08 67.27C58.8733 67.27 59.5267 66.99 60.04 66.43C60.5067 65.87 60.74 65.0067 60.74 63.84V53.97H56.33V52.43H62.63V63.77C62.63 65.4967 62.21 66.78 61.37 67.62C60.53 68.46 59.4333 68.88 58.08 68.88ZM61.58 49.91C61.2067 49.91 60.88 49.7933 60.6 49.56C60.3667 49.28 60.25 48.9533 60.25 48.58C60.25 48.2067 60.3667 47.9033 60.6 47.67C60.8333 47.39 61.16 47.25 61.58 47.25C61.9067 47.25 62.21 47.39 62.49 47.67C62.77 47.95 62.91 48.2533 62.91 48.58C62.91 48.9533 62.77 49.28 62.49 49.56C62.21 49.7933 61.9067 49.91 61.58 49.91Z" fill="#09F755"/>
<path d="M73 42V0.699998H75.1V42H73ZM79.3 42V0.699998H81.4V42H79.3ZM83.5 42V0.699998H87.7V42H83.5ZM84.41 52.15C86.09 52.15 87.3733 52.5933 88.26 53.48C89.1467 54.3667 89.59 55.8833 89.59 58.03V64.33H87.56V62.51C86.86 63.91 85.5067 64.61 83.5 64.61C82.1933 64.61 81.1667 64.3067 80.42 63.7C79.6733 63.0933 79.3 62.3 79.3 61.32C79.3 60.48 79.58 59.7567 80.14 59.15C80.6533 58.5433 81.3767 58.0533 82.31 57.68C83.1967 57.3533 84.2 57.19 85.32 57.19C86.3 57.19 87.1867 57.2367 87.98 57.33C87.8867 56.0233 87.5367 55.09 86.93 54.53C86.3233 53.97 85.4367 53.69 84.27 53.69C83.6633 53.69 83.1033 53.8067 82.59 54.04C82.03 54.2733 81.5167 54.6 81.05 55.02L80.14 53.83C81.26 52.71 82.6833 52.15 84.41 52.15ZM83.71 63.21C85.0167 63.21 86.0433 62.8133 86.79 62.02C87.5367 61.2733 87.9333 60.2 87.98 58.8C87.1867 58.66 86.3467 58.59 85.46 58.59C84.1533 58.59 83.1033 58.8233 82.31 59.29C81.5633 59.71 81.19 60.3633 81.19 61.25C81.19 62.5567 82.03 63.21 83.71 63.21Z" fill="#09F755"/>
<path d="M96 42V0.699998H98.1V42H96ZM102.3 42V0.699998H110.7V42H102.3ZM112.8 42V0.699998H114.9V42H112.8ZM112.59 63.21C111.47 64.0967 110.21 64.54 108.81 64.54C107.503 64.54 106.57 64.1433 106.01 63.35C105.45 62.51 105.17 61.2033 105.17 59.43C105.17 59.1033 105.193 58.59 105.24 57.89L105.52 53.97H102.86V52.43H105.59L105.8 49.28L107.83 48.93H108.11V49.07C108.017 49.21 107.947 49.35 107.9 49.49C107.807 49.63 107.76 49.8167 107.76 50.05L107.48 52.43H111.4V53.97H107.34L107.13 58.03C107.083 58.73 107.06 59.1733 107.06 59.36C107.06 60.76 107.223 61.7167 107.55 62.23C107.877 62.6967 108.39 62.93 109.09 62.93C109.603 62.93 110.093 62.8367 110.56 62.65C110.98 62.4633 111.47 62.16 112.03 61.74L112.59 63.21Z" fill="#09F755"/>
</svg>
